<?xml version="1.0" encoding="UTF-8" standalone="no"?>
<!-- Created with Inkscape (http://www.inkscape.org/) -->

<svg
   xmlns:dc="http://purl.org/dc/elements/1.1/"
   xmlns:cc="http://creativecommons.org/ns#"
   xmlns:rdf="http://www.w3.org/1999/02/22-rdf-syntax-ns#"
   xmlns:svg="http://www.w3.org/2000/svg"
   xmlns="http://www.w3.org/2000/svg"
   xmlns:sodipodi="http://sodipodi.sourceforge.net/DTD/sodipodi-0.dtd"
   xmlns:inkscape="http://www.inkscape.org/namespaces/inkscape"
   width="116.29385mm"
   height="135.26498mm"
   viewBox="0 0 116.29385 135.26498"
   version="1.1"
   id="svg8"
   inkscape:version="0.92.3 (2405546, 2018-03-11)"
   sodipodi:docname="boss.svg">
  <defs
     id="defs2" />
  <sodipodi:namedview
     id="base"
     pagecolor="#ffffff"
     bordercolor="#666666"
     borderopacity="1.0"
     inkscape:pageopacity="0.0"
     inkscape:pageshadow="2"
     inkscape:zoom="0.98994949"
     inkscape:cx="207.19207"
     inkscape:cy="327.87716"
     inkscape:document-units="mm"
     inkscape:current-layer="layer1"
     showgrid="false"
     fit-margin-top="0"
     fit-margin-left="0"
     fit-margin-right="0"
     fit-margin-bottom="0"
     inkscape:window-width="1920"
     inkscape:window-height="1046"
     inkscape:window-x="0"
     inkscape:window-y="0"
     inkscape:window-maximized="1" />
  <metadata
     id="metadata5">
    <rdf:RDF>
      <cc:Work
         rdf:about="">
        <dc:format>image/svg+xml</dc:format>
        <dc:type
           rdf:resource="http://purl.org/dc/dcmitype/StillImage" />
        <dc:title></dc:title>
      </cc:Work>
    </rdf:RDF>
  </metadata>
  <g
     inkscape:label="Layer 1"
     inkscape:groupmode="layer"
     id="layer1"
     transform="translate(-93.746077,-0.28957835)">
    <path
       style="fill:#000000;stroke-width:0.26458332"
       d="m 160.37186,135.34177 c -3.40422,-1.03927 -5.62934,-3.90593 -5.66101,-7.2932 -0.0123,-1.31047 0.25023,-2.28949 1.50405,-5.61008 3.0886,-8.17978 4.31016,-14.09489 4.08634,-19.78708 -0.18846,-4.792641 -1.23505,-7.594051 -3.6533,-9.778791 -1.98652,-1.79469 -3.31852,-2.21745 -7.92914,-2.51657 -6.90699,-0.44809 -11.3147,-1.88054 -15.12037,-4.91392 -1.41031,-1.12412 -4.07221,-4.291332 -3.81927,-4.544282 0.0629,-0.0629 0.61191,0.13953 1.22006,0.44978 0.86726,0.44244 5.08116,1.15945 19.53866,3.324582 10.13812,1.51826 19.03827,2.761 19.77813,2.76164 l 1.34518,0.001 1.10122,2.31725 c 4.5452,9.56434 3.67999,22.287311 -2.6517,38.992951 -0.99604,2.62797 -1.32624,3.19652 -2.61656,4.50534 -1.13333,1.14958 -1.8058,1.59558 -2.89229,1.91823 -1.4923,0.44316 -3.12613,0.50997 -4.23,0.17297 z m -37.42116,-1.14164 c -0.0688,-0.32742 -0.43226,-3.0361 -0.80781,-6.01927 -0.37554,-2.98318 -0.74056,-5.69185 -0.81113,-6.01927 -0.12771,-0.59249 -0.11263,-0.59531 3.18401,-0.59531 2.51915,0 3.31233,0.0813 3.31233,0.3395 0,0.18673 -0.35613,3.01446 -0.79141,6.28385 -0.43528,3.2694 -0.79247,6.09318 -0.79375,6.27508 -0.002,0.22746 -0.49646,0.33073 -1.5848,0.33073 -1.42764,0 -1.59468,-0.0582 -1.70744,-0.59531 z m 55.94199,0.44536 c 0,-0.0825 -0.35718,-2.83245 -0.79375,-6.11106 -0.43656,-3.2786 -0.79375,-6.18768 -0.79375,-6.46463 0,-0.46771 0.23166,-0.50352 3.2564,-0.50352 h 3.2564 l -0.86222,6.41614 c -0.47422,3.52888 -0.86803,6.50544 -0.87514,6.61458 -0.0148,0.22788 -3.18794,0.27613 -3.18794,0.0485 z m -57.93734,-15.35545 c -2.77022,-0.74443 -4.83394,-2.42806 -5.8829,-4.79941 -0.85906,-1.94204 -0.99311,-5.11617 -0.99798,-23.630221 l -0.005,-17.873562 -0.66735,-1.33919 c -0.36704,-0.736552 -0.88606,-1.537125 -1.15339,-1.779052 -0.36019,-0.325964 -0.29015,-0.05149 0.27047,1.059936 2.51935,4.994646 -1.21773,11.210326 -7.02005,11.676086 -5.622177,0.451292 -10.479683,-4.12476 -10.479683,-9.872453 0,-3.128417 1.513371,-6.480347 3.857401,-8.543642 1.149002,-1.011388 1.156502,-1.013565 4.063962,-1.179919 1.60206,-0.09166 4.09952,-0.355325 5.54993,-0.585915 l 2.63709,-0.419256 1.53696,0.737629 c 2.00772,0.963568 5.04797,3.967014 5.98094,5.90854 1.41333,2.94118 1.50914,3.827304 1.50914,13.958326 v 9.349242 l 1.23747,-0.94488 c 0.6806,-0.51968 1.5239,-1.01677 1.874,-1.10463 0.52094,-0.13075 0.59756,-0.26166 0.4219,-0.72089 -0.11804,-0.30862 -0.24853,-7.585822 -0.28998,-16.171542 l -0.0754,-15.610417 1.25623,-0.661458 c 1.60553,-0.845379 4.67281,-3.114943 7.26395,-5.374794 1.11555,-0.972925 2.09722,-1.768956 2.18149,-1.768956 0.0843,0 0.15321,3.076678 0.15321,6.837063 v 6.837063 l -1.4712,0.32924 c -0.88892,0.198932 -2.1095,0.766051 -3.08395,1.432901 -3.71271,2.54073 -4.96445,6.532075 -3.65465,11.653348 2.28863,8.948452 10.2612,14.803472 21.8574,16.052002 1.55906,0.16785 3.27505,0.23477 3.81332,0.1487 1.35078,-0.216 3.55378,0.91893 4.67392,2.4079 1.42884,1.89931 1.9883,3.79463 2.14101,7.253211 0.19279,4.36631 -0.48413,8.6057 -2.3286,14.58346 l -0.79598,2.57969 -16.46262,-0.0174 c -13.61809,-0.0144 -16.71294,-0.0847 -17.9114,-0.40674 z M 105.95122,76.279307 c 0.84797,-0.45163 1.22148,-1.04465 1.23097,-1.95438 0.0101,-0.96454 -0.40325,-1.44198 -1.24827,-1.44198 -1.66295,0 -3.1187,-1.660443 -2.92328,-3.334335 0.0999,-0.856001 0.0873,-0.869175 -0.40938,-0.428072 -0.7645,0.678921 -1.48382,2.432259 -1.48928,3.630117 -0.0117,2.55958 2.80395,4.61265 4.83924,3.52865 z m 69.33386,42.871583 c 0.68678,-2.46173 1.78728,-8.9054 2.03532,-11.91721 0.52155,-6.33298 -0.39076,-12.632081 -2.53461,-17.500271 -0.52464,-1.19135 -1.0127,-2.29959 -1.08457,-2.46275 -0.0719,-0.16317 0.38906,-0.60124 1.02427,-0.9735 5.35667,-3.13922 6.41647,-10.183652 2.20883,-14.681958 -1.31373,-1.404482 -3.44122,-2.585087 -5.15116,-2.858516 l -1.09255,-0.174707 v -9.623475 c 0,-5.29291 0.0709,-9.623474 0.15759,-9.623474 0.33573,0 1.9218,1.244449 4.11133,3.225799 2.4905,2.253703 3.58129,2.844237 5.39987,2.923384 l 1.1905,0.05181 -0.0718,16.677104 c -0.0395,9.172411 -0.16607,16.865143 -0.28125,17.094963 -0.16399,0.32723 0.0172,0.48574 0.83544,0.73089 0.57467,0.17218 1.41305,0.65699 1.86306,1.07737 l 0.81821,0.76432 0.004,-9.16814 c 0.003,-7.241582 0.0879,-9.524342 0.40349,-10.863297 1.65884,-7.037401 8.90612,-11.770992 15.78531,-10.310233 7.02718,1.492186 11.10433,9.212503 8.17313,15.476308 -0.98689,2.10896 -2.54345,3.64732 -4.74665,4.69116 -1.54714,0.733 -2.0316,0.83345 -4.00877,0.83118 -2.62044,-0.003 -4.01925,-0.51911 -5.82839,-2.15042 -2.83853,-2.5595 -3.52283,-7.27393 -1.4925,-10.282412 l 0.53569,-0.79375 -0.68706,0.621345 c -0.37788,0.341739 -0.96457,1.234707 -1.30375,1.984375 l -0.61671,1.363032 -0.1366,19.843752 c -0.15617,22.684791 -0.0168,21.354541 -2.49793,23.835711 -2.11285,2.11284 -3.53378,2.54584 -8.84792,2.69619 l -4.33871,0.12275 z M 202.1123,76.059377 c 1.16053,-0.70759 1.9149,-2.01507 1.90901,-3.30872 -0.005,-1.194019 -0.72419,-2.950728 -1.48287,-3.624315 -0.48913,-0.434265 -0.50329,-0.416546 -0.42287,0.529167 0.12311,1.447692 -0.69042,2.594126 -2.1097,2.973004 -1.72515,0.460534 -1.92412,0.625434 -2.01288,1.668234 -0.16688,1.96061 2.16093,2.95666 4.11931,1.76263 z m -51.00086,6.864102 c -9.53162,-1.432592 -17.97552,-2.801952 -18.76422,-3.043022 -1.94457,-0.59436 -3.98657,-2.61464 -4.6443,-4.59486 -0.89013,-2.679942 -0.063,-6.185864 1.88645,-7.995939 1.16602,-1.082664 2.95137,-1.861958 4.56958,-1.994593 2.23383,-0.183097 37.93797,5.23304 39.39404,5.975876 2.58739,1.319982 4.13519,3.860696 4.12515,6.771376 -0.0149,4.31863 -3.27076,7.571872 -7.5167,7.510662 -0.94588,-0.0136 -9.51838,-1.19691 -19.05,-2.6295 z m 1.19062,-17.065323 c -8.87677,-1.354314 -16.16935,-2.470901 -16.20573,-2.481302 -0.0364,-0.0104 -0.0661,-3.947972 -0.0661,-8.750159 0,-4.802187 -0.0893,-8.730562 -0.19844,-8.729718 -0.10914,7.94e-4 -1.98438,1.49823 -4.16719,3.327532 -6.47297,5.42466 -10.44893,7.819133 -15.99035,9.629981 -6.36649,2.080472 -16.879322,3.10895 -19.275922,1.885776 C 95.185812,60.121424 94.629,59.52038 94.103855,58.26353 93.2748,56.279322 93.921653,53.966504 95.680948,52.624619 c 0.89468,-0.682405 1.26104,-0.769686 4.063695,-0.968152 8.260187,-0.584928 12.231997,-1.407499 16.430187,-3.402719 2.94848,-1.401291 4.68651,-2.603328 9.13977,-6.321155 4.2799,-3.573097 5.60057,-4.50742 7.87676,-5.572524 2.67631,-1.252326 5.4515,-1.841706 8.67198,-1.841706 h 2.83805 l 0.18125,1.25677 c 0.36108,2.50366 1.78408,9.528826 2.54291,12.553947 1.37621,5.486392 3.16629,10.141624 4.60084,11.964826 0.37924,0.481975 0.42527,0.484592 0.90397,0.05137 2.19145,-1.983229 5.27256,-12.248475 7.17619,-23.908688 l 0.31316,-1.918229 2.02662,-0.06015 c 3.29279,-0.09773 4.56682,0.02289 6.35952,0.602041 2.09689,0.677434 4.96248,2.105012 6.99842,3.486475 0.84796,0.575371 1.57857,1.005697 1.62357,0.956279 0.045,-0.04942 0.46676,-2.411572 0.93722,-5.249228 0.98738,-5.955421 1.36154,-7.143749 2.2493,-7.143749 1.0108,0 5.20215,2.285552 6.6581,3.630675 l 1.36827,1.264116 -1.57586,9.260416 c -1.4044,8.25283 -1.65403,9.373005 -2.29431,10.295186 -0.92352,1.330129 -2.43184,2.113087 -4.02443,2.089063 -1.63518,-0.02466 -2.50238,-0.514215 -5.0963,-2.876947 -2.05689,-1.873573 -5.4604,-4.415335 -6.3899,-4.772017 -0.38137,-0.146344 -0.42136,0.908426 -0.42136,11.111407 0,6.200206 -0.0893,11.258589 -0.19844,11.240857 -0.10914,-0.01773 -7.46125,-1.140315 -16.33803,-2.49463 z m -0.60854,-13.136461 c -0.17463,-0.174625 -0.3175,-0.567531 -0.3175,-0.873125 0,-0.305594 0.14287,-0.6985 0.3175,-0.873125 0.70311,-0.703109 2.06375,-0.192246 2.06375,0.774851 0,1.01164 -1.37589,1.659263 -2.06375,0.971399 z m 0.20978,-4.922488 c -1.22566,-0.992484 0.03,-2.622134 1.32274,-1.716677 0.68421,0.479239 0.6108,1.332132 -0.15837,1.840153 -0.48856,0.322683 -0.6322,0.307451 -1.16437,-0.123476 z m -0.25985,-4.413866 c -0.44838,-0.540266 -0.12316,-1.649381 0.54589,-1.861733 0.63235,-0.200697 1.56793,0.506352 1.56793,1.184929 0,0.993669 -1.46227,1.461862 -2.11382,0.676804 z m -3.9716,-5.559687 c 0,-1.382448 0.0738,-2.513541 0.16402,-2.513541 0.40626,0 4.06901,2.251813 4.06651,2.500037 -0.002,0.240223 -3.70336,2.527046 -4.0897,2.527046 -0.0775,0 -0.14083,-1.131094 -0.14083,-2.513542 z m 7.30126,1.369645 c -1.00479,-0.607782 -1.83471,-1.224124 -1.84427,-1.369645 -0.0164,-0.249933 3.44593,-2.493118 3.86958,-2.507027 0.10914,-0.0036 0.19844,1.124579 0.19844,2.507027 0,1.382448 -0.0893,2.504805 -0.19844,2.494124 -0.10914,-0.01069 -1.02053,-0.516694 -2.02531,-1.124479 z m 42.44042,-2.812955 c -1.58987,-0.315211 -3.12847,-1.287714 -5.58921,-3.532772 -3.75824,-3.428838 -5.27483,-4.646244 -7.00528,-5.623321 -1.79693,-1.014618 -5.13757,-1.968305 -6.89471,-1.968305 -0.9877,0 -1.1483,-0.07719 -1.1483,-0.551934 0,-0.532086 0.10704,-0.548738 2.97656,-0.463021 l 2.97656,0.08891 3.83646,1.905047 c 2.11005,1.047777 4.99809,2.536058 6.41787,3.307292 2.92314,1.58787 2.82772,1.610794 3.52451,-0.846714 0.22693,-0.800365 0.46185,-1.608225 0.52204,-1.795246 0.0819,-0.254484 0.79287,-0.321053 2.82578,-0.264583 l 2.71634,0.07545 0.34023,2.116666 c 0.45037,2.801938 0.30961,4.959596 -0.38428,5.890535 -1.04004,1.395341 -3.09365,2.062663 -5.11457,1.661988 z m -47.78087,-5.960755 c -2.48159,-0.539946 -4.77474,-1.836391 -6.73944,-3.810172 -2.69015,-2.70259 -3.94356,-5.756129 -3.94948,-9.621699 l -0.003,-2.050521 h 1.68799 1.688 l 0.11328,1.566105 c 0.1513,2.091675 1.09864,3.471771 3.03265,4.417994 1.09113,0.533841 1.69245,0.668096 2.55627,0.570731 1.54129,-0.173725 2.99982,-0.910525 3.80837,-1.92385 l 0.67462,-0.845463 1.12349,1.123497 c 2.03375,2.033736 5.06338,2.1735 7.16253,0.330424 1.2537,-1.100763 1.96531,-2.567539 1.96531,-4.050898 v -1.213791 l 1.65365,0.07877 1.65364,0.07877 0.0795,1.679905 c 0.29803,6.301374 -4.43958,12.342426 -10.72368,13.674055 -2.17144,0.460134 -3.65555,0.459145 -5.78351,-0.0039 z m 47.78087,-9.277823 c 0,-1.478787 -0.13548,-2.524082 -0.39124,-3.018673 -0.49255,-0.952475 -2.00072,-1.515911 -4.53424,-1.693943 -2.23601,-0.157125 -3.61959,-0.684119 -4.82054,-1.836092 -1.26585,-1.214237 -1.62597,-2.05385 -1.89585,-4.420111 -0.13139,-1.1520517 -0.44141,-2.4037167 -0.68893,-2.7814777 -0.54815,-0.836581 -1.96784,-1.587041 -3.47806,-1.838531 -0.86557,-0.14414 -1.12448,-0.303738 -1.12448,-0.693165 0,-1.099211 3.18924,-0.440578 4.76647,0.98436 1.17181,1.058655 1.4842,1.836441 1.82376,4.5406797 0.41542,3.308467 1.82292,4.473338 5.85454,4.845354 4.64287,0.428417 5.81148,1.618099 5.81148,5.91624 0,2.231564 -0.008,2.257456 -0.66146,2.257456 -0.65397,0 -0.66145,-0.02558 -0.66145,-2.262097 z m 3.70416,-2.074216 c 0,-5.437578 -0.0438,-5.521753 -2.94472,-5.652677 -3.73827,-0.168718 -4.01717,-0.502008 -2.11718,-2.530084 1.4718,-1.5710287 1.8869,-2.2662217 1.8869,-3.1601197 0,-1.035826 -1.06768,-1.787058 -3.01356,-2.120374 -1.3955,-0.239039 -1.74894,-0.395656 -1.74894,-0.775006 0,-0.384663 0.21977,-0.475426 1.15115,-0.475426 2.33098,0 4.2451,1.06904 4.6577,2.601335 0.37367,1.387671 -0.0355,2.622363 -1.30773,3.9463977 -0.58384,0.607606 -1.06153,1.16887 -1.06153,1.247253 0,0.07838 0.77982,0.142515 1.73293,0.142515 1.90759,0 3.08391,0.453299 3.61173,1.391801 0.21988,0.390957 0.36649,2.145447 0.4309,5.156636 l 0.0976,4.564062 h -0.68764 -0.68764 z m -55.34756,0.637721 c -1.15132,-0.625932 -1.71755,-1.36281 -2.08139,-2.708652 -0.19681,-0.728 -0.17858,-1.122982 0.0702,-1.521354 0.31147,-0.49875 0.60246,-0.538068 3.98222,-0.538068 3.62093,0 3.64826,0.0045 3.94402,0.653669 0.42874,0.940963 -0.35339,2.855484 -1.53457,3.756418 -1.22661,0.935582 -3.04478,1.084168 -4.38049,0.357987 z m 9.95841,0.151431 c -1.70635,-0.743235 -2.92432,-3.103934 -2.25076,-4.362479 0.28106,-0.525174 0.50777,-0.557026 3.96466,-0.557026 4.01219,0 3.98775,-0.01007 3.98775,1.644055 0,1.183936 -0.92099,2.475589 -2.21017,3.099672 -1.29546,0.627118 -2.33512,0.679459 -3.49148,0.175778 z m -25.07821,-6.154227 c -0.097,-0.09701 -0.17639,-0.513733 -0.17639,-0.926042 V 12.02878 h 4.47466 4.47466 l 0.1427,-0.992187 c 0.0785,-0.545704 0.21101,-1.9446877 0.29447,-3.1088547 0.0835,-1.164167 0.22113,-2.694169 0.30591,-3.400005 l 0.15414,-1.283338 1.88975,-0.895267 c 3.30347,-1.56501998 5.59326,-2.03184998 10.09183,-2.05746698 3.26245,-0.01858 4.37885,0.08074 6.27308,0.558072 2.78214,0.70107498 5.62429,1.94768798 5.97048,2.61875098 0.13917,0.269777 0.33058,1.621598 0.42535,3.004046 0.0948,1.382448 0.24521,3.198151 0.33432,4.0348947 l 0.162,1.521355 h 4.46375 4.46374 v 0.926042 0.926042 h -21.78404 c -11.98121,0 -21.8634,-0.07937 -21.96041,-0.176389 z"
       id="path1536"
       inkscape:connector-curvature="0" />
  </g>
</svg>
