<?xml version="1.0" encoding="UTF-8" standalone="no"?>
<svg
   xmlns:dc="http://purl.org/dc/elements/1.1/"
   xmlns:cc="http://creativecommons.org/ns#"
   xmlns:rdf="http://www.w3.org/1999/02/22-rdf-syntax-ns#"
   xmlns:svg="http://www.w3.org/2000/svg"
   xmlns="http://www.w3.org/2000/svg"
   xmlns:sodipodi="http://sodipodi.sourceforge.net/DTD/sodipodi-0.dtd"
   xmlns:inkscape="http://www.inkscape.org/namespaces/inkscape"
   width="512pt"
   height="512pt"
   viewBox="0 0 512 512"
   version="1.2"
   id="svg3950"
   sodipodi:docname="иКОНКА 5.svg"
   inkscape:version="0.92.3 (2405546, 2018-03-11)">
  <metadata
     id="metadata3956">
    <rdf:RDF>
      <cc:Work
         rdf:about="">
        <dc:format>image/svg+xml</dc:format>
        <dc:type
           rdf:resource="http://purl.org/dc/dcmitype/StillImage" />
        <dc:title></dc:title>
      </cc:Work>
    </rdf:RDF>
  </metadata>
  <defs
     id="defs3954" />
  <sodipodi:namedview
     pagecolor="#ffffff"
     bordercolor="#666666"
     borderopacity="1"
     objecttolerance="10"
     gridtolerance="10"
     guidetolerance="10"
     inkscape:pageopacity="0"
     inkscape:pageshadow="2"
     inkscape:window-width="2560"
     inkscape:window-height="1017"
     id="namedview3952"
     showgrid="false"
     inkscape:zoom="0.9777961"
     inkscape:cx="591.3209"
     inkscape:cy="349.43413"
     inkscape:window-x="-8"
     inkscape:window-y="-8"
     inkscape:window-maximized="1"
     inkscape:current-layer="svg3950" />
  <path
     style="fill:#1c8cff;fill-opacity:1;stroke:none;stroke-width:1.33333337"
     d="M 66.476562 0 C 29.648844 -9.4739031e-015 0 29.648844 0 66.476562 L 0 616.19141 C -9.4739031e-015 653.01913 29.648844 682.66602 66.476562 682.66602 L 616.19141 682.66602 C 653.01913 682.66602 682.66602 653.01913 682.66602 616.19141 L 682.66602 66.476562 C 682.66602 29.648844 653.01913 0 616.19141 0 L 66.476562 0 z M 341.33203 47.582031 C 352.19336 47.582031 363.05468 52.148437 370.28125 61.28125 L 421.36914 125.84961 L 421.36914 71.806641 L 478.57227 71.806641 L 478.57227 198.14062 L 524.86914 256.66211 C 532.84831 266.74544 537.16211 278.98959 537.16211 291.57812 L 537.16211 497.94336 L 443.02148 497.94336 L 443.02148 429.97461 C 443.02148 416.56314 431.50587 405.69336 417.30273 405.69336 L 265.36523 405.69336 C 251.1621 405.69336 239.64648 416.56314 239.64648 429.97461 L 239.64648 497.94336 L 145.50977 497.94336 L 145.50977 291.57812 C 145.50977 278.98959 149.81769 266.74544 157.79688 256.66211 L 312.38477 61.28125 C 319.60873 52.148437 330.4707 47.582031 341.33203 47.582031 z M 329.41602 188.41211 C 327.2806 189.91211 325.4069 191.86458 323.95898 194.28125 L 283.625 261.50977 L 329.41602 261.50977 L 329.41602 188.41211 z M 353.25 188.41211 L 353.25 261.50977 L 399.04102 261.50977 L 358.70898 194.28125 C 357.26106 191.86458 355.38541 189.91211 353.25 188.41211 z M 270.125 284.00977 L 256.53125 306.67188 C 248.98958 319.23958 258.61003 334.81836 273.91211 334.81836 L 329.41602 334.81836 L 329.41602 284.00977 L 270.125 284.00977 z M 353.25 284.00977 L 353.25 334.81836 L 408.75586 334.81836 C 424.05794 334.81836 433.67643 319.23958 426.13477 306.67188 L 412.54102 284.00977 L 353.25 284.00977 z M 407.65039 548.36914 C 424.1608 548.36914 436.69271 551.83333 445.25 558.76562 C 453.80208 565.69272 458.08398 576.68165 458.08398 591.72852 C 458.08398 606.7754 453.80208 617.76107 445.25 624.69336 C 436.69271 631.62565 424.1608 635.08789 407.65039 635.08789 C 391.13998 635.08789 378.61003 631.62565 370.05273 624.69336 C 361.50065 617.76107 357.22461 606.7754 357.22461 591.72852 C 357.22461 576.68165 361.50065 565.69272 370.05273 558.76562 C 378.61003 551.83333 391.13998 548.36914 407.65039 548.36914 z M 148.19336 550.15039 L 181.94336 550.15039 C 183.47981 550.15039 184.76498 550.68814 185.79102 551.75586 C 186.81706 552.82877 187.32814 554.07227 187.32812 555.49414 L 187.32812 627.95898 C 187.32812 629.4642 186.75586 630.72851 185.59961 631.75977 C 184.44336 632.79102 183.05273 633.30273 181.42773 633.30273 L 169.61914 633.30273 C 167.91081 633.30273 166.49935 632.79102 165.38477 631.75977 C 164.27539 630.72851 163.71875 629.42642 163.71875 627.83789 L 163.71875 613.22852 L 119.19336 613.22852 L 114.95898 627.83789 C 114.5319 629.42642 113.58789 630.72851 112.13477 631.75977 C 110.67643 632.79102 109.14064 633.30273 107.51562 633.30273 L 95.197266 633.30273 C 93.572266 633.30273 92.328776 632.79102 91.474609 631.75977 C 90.620443 630.72851 90.406902 629.4642 90.833984 627.95898 L 106.61914 572.72461 C 110.89518 557.67773 124.75586 550.15039 148.19336 550.15039 z M 209.27539 550.15039 L 222.74414 550.15039 C 226.93685 550.15039 230.57227 551.97461 233.65039 555.61523 L 250.84961 575.8125 L 268.04102 555.61523 C 271.12435 551.97461 274.75522 550.15039 278.95312 550.15039 L 292.42188 550.15039 C 294.13541 550.15039 295.22331 550.70899 295.69727 551.81836 C 296.16601 552.92773 295.80141 554.19335 294.60352 555.61523 L 264.83398 590.54102 L 296.40039 627.83789 C 297.59831 629.26497 297.9629 630.53125 297.49414 631.64062 C 297.02018 632.75001 295.9323 633.30273 294.21875 633.30273 L 280.875 633.30273 C 276.68229 633.30273 273.04688 631.48372 269.96875 627.83789 L 250.84961 605.27148 L 231.72852 627.83789 C 228.6504 631.48372 225.00976 633.30273 220.82227 633.30273 L 207.47461 633.30273 C 205.76628 633.30273 204.6719 632.75001 204.20312 631.64062 C 203.73438 630.53125 204.09377 629.26497 205.29688 627.83789 L 236.85938 590.54102 L 207.09375 555.61523 C 205.89063 554.19335 205.53125 552.92773 206 551.81836 C 206.46875 550.70899 207.56184 550.15039 209.27539 550.15039 z M 320.27148 550.15039 L 331.94727 550.15039 C 333.6556 550.15039 335.0879 550.68814 336.24414 551.75586 C 337.40039 552.82357 337.97461 554.11523 337.97461 555.61523 L 337.97461 627.83789 C 337.97461 629.34309 337.37956 630.62956 336.18164 631.69727 C 334.98372 632.77017 333.56705 633.30273 331.94727 633.30273 L 320.27148 633.30273 C 318.64128 633.30273 317.25586 632.79102 316.09961 631.75977 C 314.94336 630.72851 314.36523 629.4642 314.36523 627.95898 L 314.36523 555.61523 C 314.36523 554.11523 314.94336 552.82357 316.09961 551.75586 C 317.25586 550.68814 318.64128 550.15039 320.27148 550.15039 z M 483.10352 550.15039 L 508.64062 550.15039 C 510.26042 550.15039 511.80273 550.68814 513.25586 551.75586 C 514.71419 552.82357 515.69857 554.11523 516.20898 555.61523 L 534.6875 605.15039 L 553.16602 555.61523 C 553.67643 554.11523 554.6621 552.82357 556.11523 551.75586 C 557.57357 550.68814 559.10936 550.15039 560.73438 550.15039 L 586.27148 550.15039 C 587.89648 550.15039 589.26563 550.68814 590.375 551.75586 C 591.48959 552.82357 592.04688 554.15103 592.04688 555.73438 L 592.04688 627.71875 C 592.04687 629.3073 591.46875 630.62956 590.3125 631.69727 C 589.16146 632.77017 587.76564 633.30273 586.14062 633.30273 L 574.85352 633.30273 C 573.22332 633.30273 571.83789 632.77017 570.68164 631.69727 C 569.52539 630.62956 568.94727 629.3073 568.94727 627.71875 L 568.94727 571.05664 L 546.88086 628.07812 C 546.2819 629.50523 545.25 630.72851 543.79688 631.75977 C 542.34373 632.79102 540.80273 633.30273 539.17773 633.30273 L 530.19727 633.30273 C 528.57227 633.30273 527.03127 632.79102 525.57812 631.75977 C 524.11979 630.72851 523.09375 629.50523 522.5 628.07812 L 500.42773 571.05664 L 500.42773 627.71875 C 500.42773 629.3073 499.84961 630.62956 498.69336 631.69727 C 497.53711 632.77017 496.14518 633.30273 494.52539 633.30273 L 483.23438 633.30273 C 481.60415 633.30273 480.21875 632.77017 479.0625 631.69727 C 477.90626 630.62956 477.32812 629.3073 477.32812 627.71875 L 477.32812 555.73438 C 477.32812 554.15103 477.88541 552.82357 479 551.75586 C 480.10937 550.68814 481.47852 550.15039 483.10352 550.15039 z M 407.65039 564.05273 C 398.23894 564.05273 391.42189 566.36459 387.1875 571 C 382.95313 575.63021 380.83398 582.54102 380.83398 591.72852 C 380.83398 600.91602 382.95313 607.82357 387.1875 612.45898 C 391.42189 617.0892 398.23894 619.40625 407.65039 619.40625 C 417.06184 619.40625 423.88477 617.0892 428.11914 612.45898 C 432.35351 607.82357 434.46875 600.91602 434.46875 591.72852 C 434.46875 582.54102 432.35351 575.63021 428.11914 571 C 423.88477 566.36459 417.06184 564.05273 407.65039 564.05273 z M 145.88477 566.54688 C 141.85873 566.54688 138.35418 567.5944 135.35938 569.69336 C 132.36458 571.79232 130.35938 574.62501 129.32812 578.1875 L 123.8125 596.83398 L 163.71875 596.83398 L 163.71875 566.54688 L 145.88477 566.54688 z "
     id="rect3935"
     transform="scale(0.74999998)" />
</svg>
