<?xml version="1.0" encoding="UTF-8" standalone="no"?>
<svg
   xmlns:dc="http://purl.org/dc/elements/1.1/"
   xmlns:cc="http://creativecommons.org/ns#"
   xmlns:rdf="http://www.w3.org/1999/02/22-rdf-syntax-ns#"
   xmlns:svg="http://www.w3.org/2000/svg"
   xmlns="http://www.w3.org/2000/svg"
   xmlns:sodipodi="http://sodipodi.sourceforge.net/DTD/sodipodi-0.dtd"
   xmlns:inkscape="http://www.inkscape.org/namespaces/inkscape"
   width="32pt"
   height="32pt"
   viewBox="0 0 32 32"
   version="1.2"
   id="svg4012"
   sodipodi:docname="Конвектор включен.svg"
   inkscape:version="0.92.3 (2405546, 2018-03-11)">
  <metadata
     id="metadata4018">
    <rdf:RDF>
      <cc:Work
         rdf:about="">
        <dc:format>image/svg+xml</dc:format>
        <dc:type
           rdf:resource="http://purl.org/dc/dcmitype/StillImage" />
        <dc:title></dc:title>
      </cc:Work>
    </rdf:RDF>
  </metadata>
  <defs
     id="defs4016" />
  <sodipodi:namedview
     pagecolor="#ffffff"
     bordercolor="#666666"
     borderopacity="1"
     objecttolerance="10"
     gridtolerance="10"
     guidetolerance="10"
     inkscape:pageopacity="0"
     inkscape:pageshadow="2"
     inkscape:window-width="640"
     inkscape:window-height="480"
     id="namedview4014"
     showgrid="false"
     inkscape:zoom="5.53125"
     inkscape:cx="21.333333"
     inkscape:cy="21.333333"
     inkscape:window-x="187"
     inkscape:window-y="105"
     inkscape:window-maximized="0"
     inkscape:current-layer="svg4012" />
  <g
     id="surface85480">
    <path
       style="fill:none;stroke-width:2;stroke-linecap:round;stroke-linejoin:round;stroke:rgb(11.372375%,11.372375%,10.588074%);stroke-opacity:1;stroke-miterlimit:10;"
       d="M 0 0 C 0 -3 -3 -3 -3 0 L -3 14 C -3 17 0 17 0 14 Z M 0 0 "
       transform="matrix(1,0,0,-1,8,28)"
       id="path3975" />
    <path
       style="fill:none;stroke-width:2;stroke-linecap:round;stroke-linejoin:round;stroke:rgb(11.372375%,11.372375%,10.588074%);stroke-opacity:1;stroke-miterlimit:10;"
       d="M 0 0 C 0 -3 -3 -3 -3 0 L -3 14 C -3 17 0 17 0 14 Z M 0 0 "
       transform="matrix(1,0,0,-1,14,28)"
       id="path3977" />
    <path
       style="fill:none;stroke-width:2;stroke-linecap:round;stroke-linejoin:round;stroke:rgb(11.372375%,11.372375%,10.588074%);stroke-opacity:1;stroke-miterlimit:10;"
       d="M 0 0 C 0 -3 -3 -3 -3 0 L -3 14 C -3 17 0 17 0 14 Z M 0 0 "
       transform="matrix(1,0,0,-1,20,28)"
       id="path3979" />
    <path
       style="fill:none;stroke-width:2;stroke-linecap:round;stroke-linejoin:round;stroke:rgb(11.372375%,11.372375%,10.588074%);stroke-opacity:1;stroke-miterlimit:10;"
       d="M 0 0 C 0 -3 -3 -3 -3 0 L -3 14 C -3 17 0 17 0 14 Z M 0 0 "
       transform="matrix(1,0,0,-1,26,28)"
       id="path3981" />
    <path
       style="fill:none;stroke-width:2;stroke-linecap:round;stroke-linejoin:round;stroke:rgb(11.372375%,11.372375%,10.588074%);stroke-opacity:1;stroke-miterlimit:10;"
       d="M 0 0 L 4 0 "
       transform="matrix(1,0,0,-1,26,16)"
       id="path3983" />
    <path
       style="fill:none;stroke-width:2;stroke-linecap:round;stroke-linejoin:round;stroke:rgb(11.372375%,11.372375%,10.588074%);stroke-opacity:1;stroke-miterlimit:10;"
       d="M 0 0 L 3 0 "
       transform="matrix(1,0,0,-1,20,16)"
       id="path3985" />
    <path
       style="fill:none;stroke-width:2;stroke-linecap:round;stroke-linejoin:round;stroke:rgb(11.372375%,11.372375%,10.588074%);stroke-opacity:1;stroke-miterlimit:10;"
       d="M 0 0 L 3 0 "
       transform="matrix(1,0,0,-1,14,16)"
       id="path3987" />
    <path
       style="fill:none;stroke-width:2;stroke-linecap:round;stroke-linejoin:round;stroke:rgb(11.372375%,11.372375%,10.588074%);stroke-opacity:1;stroke-miterlimit:10;"
       d="M 0 0 L 3 0 "
       transform="matrix(1,0,0,-1,8,16)"
       id="path3989" />
    <path
       style="fill:none;stroke-width:2;stroke-linecap:round;stroke-linejoin:round;stroke:rgb(11.372375%,11.372375%,10.588074%);stroke-opacity:1;stroke-miterlimit:10;"
       d="M 0 0 L 3 0 "
       transform="matrix(1,0,0,-1,2,16)"
       id="path3991" />
    <path
       style="fill:none;stroke-width:2;stroke-linecap:round;stroke-linejoin:round;stroke:rgb(11.372375%,11.372375%,10.588074%);stroke-opacity:1;stroke-miterlimit:10;"
       d="M 0 0 L 4 0 "
       transform="matrix(1,0,0,-1,26,27)"
       id="path3993" />
    <path
       style="fill:none;stroke-width:2;stroke-linecap:butt;stroke-linejoin:miter;stroke:rgb(11.372375%,11.372375%,10.588074%);stroke-opacity:1;stroke-miterlimit:10;"
       d="M 0 0 L 3 0 "
       transform="matrix(1,0,0,-1,20,27)"
       id="path3995" />
    <path
       style="fill:none;stroke-width:2;stroke-linecap:butt;stroke-linejoin:miter;stroke:rgb(11.372375%,11.372375%,10.588074%);stroke-opacity:1;stroke-miterlimit:10;"
       d="M 0 0 L 3 0 "
       transform="matrix(1,0,0,-1,14,27)"
       id="path3997" />
    <path
       style="fill:none;stroke-width:2;stroke-linecap:butt;stroke-linejoin:miter;stroke:rgb(11.372375%,11.372375%,10.588074%);stroke-opacity:1;stroke-miterlimit:10;"
       d="M 0 0 L 3 0 "
       transform="matrix(1,0,0,-1,8,27)"
       id="path3999" />
    <path
       style="fill:none;stroke-width:2;stroke-linecap:round;stroke-linejoin:round;stroke:rgb(11.372375%,11.372375%,10.588074%);stroke-opacity:1;stroke-miterlimit:10;"
       d="M 0 0 L 3 0 "
       transform="matrix(1,0,0,-1,2,27)"
       id="path4001" />
    <path
       style=" stroke:none;fill-rule:nonzero;fill:rgb(11.372375%,11.372375%,10.588074%);fill-opacity:1;"
       d="M 6 10.1875 C 6 10.1875 5.984375 10.140625 5.957031 10.054688 C 5.925781 9.972656 5.882813 9.847656 5.894531 9.644531 C 5.902344 9.457031 5.945313 9.214844 6.078125 8.984375 C 6.195313 8.738281 6.375 8.507813 6.558594 8.296875 C 6.738281 8.082031 6.921875 7.863281 7.023438 7.683594 C 7.128906 7.492188 7.125 7.378906 7.105469 7.25 C 7.09375 7.234375 7.097656 7.136719 7.085938 7.1875 C 7.070313 7.125 7.0625 6.96875 7.039063 6.988281 C 7.019531 7.019531 7.003906 6.964844 6.953125 6.917969 C 6.871094 6.824219 6.683594 6.660156 6.394531 6.453125 C 6.121094 6.234375 5.730469 5.957031 5.425781 5.464844 C 5.101563 4.984375 5.03125 4.304688 5.132813 3.878906 C 5.136719 3.832031 5.195313 3.613281 5.242188 3.476563 C 5.289063 3.316406 5.359375 3.222656 5.429688 3.109375 C 5.566406 2.890625 5.730469 2.722656 5.890625 2.59375 C 6.210938 2.335938 6.503906 2.21875 6.746094 2.109375 C 7.222656 1.898438 7.539063 1.765625 7.730469 1.539063 C 7.816406 1.429688 7.902344 1.328125 7.933594 1.246094 C 7.976563 1.167969 8 1.125 8 1.125 C 7.980469 1.125 8.109375 1.292969 8.109375 1.671875 C 8.097656 1.851563 8.054688 2.097656 7.925781 2.332031 C 7.804688 2.574219 7.628906 2.804688 7.445313 3.019531 C 7.265625 3.238281 7.082031 3.453125 6.980469 3.632813 C 6.929688 3.726563 6.898438 3.804688 6.890625 3.871094 C 6.894531 3.902344 6.875 3.949219 6.894531 3.949219 C 6.90625 3.972656 6.894531 3.910156 6.898438 4.03125 C 6.914063 4.257813 6.972656 4.300781 7.046875 4.398438 C 7.128906 4.492188 7.3125 4.65625 7.601563 4.859375 C 7.875 5.078125 8.265625 5.355469 8.570313 5.847656 C 8.722656 6.082031 8.835938 6.359375 8.886719 6.722656 C 8.917969 6.90625 8.898438 6.921875 8.902344 7.03125 C 8.917969 7.25 8.878906 7.320313 8.863281 7.46875 C 8.769531 8.003906 8.429688 8.472656 8.109375 8.71875 C 7.789063 8.976563 7.492188 9.09375 7.253906 9.203125 C 6.777344 9.414063 6.460938 9.546875 6.265625 9.773438 C 6.183594 9.867188 6.097656 9.980469 6.0625 10.066406 C 6.023438 10.144531 6 10.1875 6 10.1875 "
       id="path4003" />
    <path
       style=" stroke:none;fill-rule:nonzero;fill:rgb(11.372375%,11.372375%,10.588074%);fill-opacity:1;"
       d="M 12 10.1875 C 12 10.1875 11.984375 10.140625 11.957031 10.054688 C 11.925781 9.972656 11.882813 9.847656 11.894531 9.644531 C 11.902344 9.457031 11.945313 9.214844 12.078125 8.984375 C 12.195313 8.738281 12.375 8.507813 12.558594 8.296875 C 12.738281 8.082031 12.921875 7.863281 13.023438 7.683594 C 13.128906 7.492188 13.125 7.378906 13.105469 7.25 C 13.09375 7.234375 13.097656 7.136719 13.085938 7.1875 C 13.070313 7.125 13.0625 6.96875 13.039063 6.988281 C 13.019531 7.019531 13.003906 6.964844 12.953125 6.917969 C 12.871094 6.824219 12.683594 6.660156 12.394531 6.453125 C 12.121094 6.234375 11.730469 5.957031 11.425781 5.464844 C 11.101563 4.984375 11.03125 4.304688 11.132813 3.878906 C 11.136719 3.832031 11.195313 3.613281 11.242188 3.476563 C 11.289063 3.316406 11.359375 3.222656 11.429688 3.109375 C 11.566406 2.890625 11.730469 2.722656 11.890625 2.59375 C 12.210938 2.335938 12.503906 2.21875 12.746094 2.109375 C 13.222656 1.898438 13.539063 1.765625 13.730469 1.539063 C 13.816406 1.429688 13.902344 1.328125 13.933594 1.246094 C 13.976563 1.167969 14 1.125 14 1.125 C 13.980469 1.125 14.109375 1.292969 14.109375 1.671875 C 14.097656 1.851563 14.054688 2.097656 13.925781 2.332031 C 13.804688 2.574219 13.628906 2.804688 13.445313 3.019531 C 13.265625 3.238281 13.082031 3.453125 12.980469 3.632813 C 12.929688 3.726563 12.898438 3.804688 12.890625 3.871094 C 12.894531 3.902344 12.875 3.949219 12.894531 3.949219 C 12.90625 3.972656 12.894531 3.910156 12.898438 4.03125 C 12.914063 4.257813 12.972656 4.300781 13.046875 4.398438 C 13.128906 4.492188 13.3125 4.65625 13.601563 4.859375 C 13.875 5.078125 14.265625 5.355469 14.570313 5.847656 C 14.722656 6.082031 14.835938 6.359375 14.886719 6.722656 C 14.917969 6.90625 14.898438 6.921875 14.902344 7.03125 C 14.917969 7.25 14.878906 7.320313 14.863281 7.46875 C 14.769531 8.003906 14.429688 8.472656 14.109375 8.71875 C 13.789063 8.976563 13.492188 9.09375 13.253906 9.203125 C 12.777344 9.414063 12.460938 9.546875 12.265625 9.773438 C 12.183594 9.867188 12.097656 9.980469 12.0625 10.066406 C 12.023438 10.144531 12 10.1875 12 10.1875 "
       id="path4005" />
    <path
       style=" stroke:none;fill-rule:nonzero;fill:rgb(11.372375%,11.372375%,10.588074%);fill-opacity:1;"
       d="M 18 10.1875 C 18 10.1875 17.984375 10.140625 17.957031 10.054688 C 17.925781 9.972656 17.882813 9.847656 17.894531 9.644531 C 17.902344 9.457031 17.945313 9.214844 18.078125 8.984375 C 18.195313 8.738281 18.375 8.507813 18.558594 8.296875 C 18.738281 8.082031 18.921875 7.863281 19.023438 7.683594 C 19.128906 7.492188 19.125 7.378906 19.105469 7.25 C 19.09375 7.234375 19.097656 7.136719 19.085938 7.1875 C 19.070313 7.125 19.0625 6.96875 19.039063 6.988281 C 19.019531 7.019531 19.003906 6.964844 18.953125 6.917969 C 18.871094 6.824219 18.683594 6.660156 18.394531 6.453125 C 18.121094 6.234375 17.730469 5.957031 17.425781 5.464844 C 17.101563 4.984375 17.03125 4.304688 17.132813 3.878906 C 17.136719 3.832031 17.195313 3.613281 17.242188 3.476563 C 17.289063 3.316406 17.359375 3.222656 17.429688 3.109375 C 17.566406 2.890625 17.730469 2.722656 17.890625 2.59375 C 18.210938 2.335938 18.503906 2.21875 18.746094 2.109375 C 19.222656 1.898438 19.539063 1.765625 19.730469 1.539063 C 19.816406 1.429688 19.902344 1.328125 19.933594 1.246094 C 19.976563 1.167969 20 1.125 20 1.125 C 19.980469 1.125 20.109375 1.292969 20.109375 1.671875 C 20.097656 1.851563 20.054688 2.097656 19.925781 2.332031 C 19.804688 2.574219 19.628906 2.804688 19.445313 3.019531 C 19.265625 3.238281 19.082031 3.453125 18.980469 3.632813 C 18.929688 3.726563 18.898438 3.804688 18.890625 3.871094 C 18.894531 3.902344 18.875 3.949219 18.894531 3.949219 C 18.90625 3.972656 18.894531 3.910156 18.898438 4.03125 C 18.914063 4.257813 18.972656 4.300781 19.046875 4.398438 C 19.128906 4.492188 19.3125 4.65625 19.601563 4.859375 C 19.875 5.078125 20.265625 5.355469 20.570313 5.847656 C 20.722656 6.082031 20.835938 6.359375 20.886719 6.722656 C 20.917969 6.90625 20.898438 6.921875 20.902344 7.03125 C 20.917969 7.25 20.878906 7.320313 20.863281 7.46875 C 20.769531 8.003906 20.429688 8.472656 20.109375 8.71875 C 19.789063 8.976563 19.492188 9.09375 19.253906 9.203125 C 18.777344 9.414063 18.460938 9.546875 18.265625 9.773438 C 18.183594 9.867188 18.097656 9.980469 18.0625 10.066406 C 18.023438 10.144531 18 10.1875 18 10.1875 "
       id="path4007" />
    <path
       style=" stroke:none;fill-rule:nonzero;fill:rgb(11.372375%,11.372375%,10.588074%);fill-opacity:1;"
       d="M 24 10.1875 C 24 10.1875 23.984375 10.140625 23.957031 10.054688 C 23.925781 9.972656 23.882813 9.847656 23.894531 9.644531 C 23.902344 9.457031 23.945313 9.214844 24.078125 8.984375 C 24.195313 8.738281 24.375 8.507813 24.558594 8.296875 C 24.738281 8.082031 24.921875 7.863281 25.023438 7.683594 C 25.128906 7.492188 25.125 7.378906 25.105469 7.25 C 25.09375 7.234375 25.097656 7.136719 25.085938 7.1875 C 25.070313 7.125 25.0625 6.96875 25.039063 6.988281 C 25.019531 7.019531 25.003906 6.964844 24.953125 6.917969 C 24.871094 6.824219 24.683594 6.660156 24.394531 6.453125 C 24.121094 6.234375 23.730469 5.957031 23.425781 5.464844 C 23.101563 4.984375 23.03125 4.304688 23.132813 3.878906 C 23.136719 3.832031 23.195313 3.613281 23.242188 3.476563 C 23.289063 3.316406 23.359375 3.222656 23.429688 3.109375 C 23.566406 2.890625 23.730469 2.722656 23.890625 2.59375 C 24.210938 2.335938 24.503906 2.21875 24.746094 2.109375 C 25.222656 1.898438 25.539063 1.765625 25.730469 1.539063 C 25.816406 1.429688 25.902344 1.328125 25.933594 1.246094 C 25.976563 1.167969 26 1.125 26 1.125 C 25.980469 1.125 26.109375 1.292969 26.109375 1.671875 C 26.097656 1.851563 26.054688 2.097656 25.925781 2.332031 C 25.804688 2.574219 25.628906 2.804688 25.445313 3.019531 C 25.265625 3.238281 25.082031 3.453125 24.980469 3.632813 C 24.929688 3.726563 24.898438 3.804688 24.890625 3.871094 C 24.894531 3.902344 24.875 3.949219 24.894531 3.949219 C 24.90625 3.972656 24.894531 3.910156 24.898438 4.03125 C 24.914063 4.257813 24.972656 4.300781 25.046875 4.398438 C 25.128906 4.492188 25.3125 4.65625 25.601563 4.859375 C 25.875 5.078125 26.265625 5.355469 26.570313 5.847656 C 26.722656 6.082031 26.835938 6.359375 26.886719 6.722656 C 26.917969 6.90625 26.898438 6.921875 26.902344 7.03125 C 26.917969 7.25 26.878906 7.320313 26.863281 7.46875 C 26.769531 8.003906 26.429688 8.472656 26.109375 8.71875 C 25.789063 8.976563 25.492188 9.09375 25.253906 9.203125 C 24.777344 9.414063 24.460938 9.546875 24.265625 9.773438 C 24.183594 9.867188 24.097656 9.980469 24.0625 10.066406 C 24.023438 10.144531 24 10.1875 24 10.1875 "
       id="path4009" />
  </g>
</svg>
