<?xml version="1.0" encoding="UTF-8" standalone="no"?>
<svg
   xmlns:dc="http://purl.org/dc/elements/1.1/"
   xmlns:cc="http://creativecommons.org/ns#"
   xmlns:rdf="http://www.w3.org/1999/02/22-rdf-syntax-ns#"
   xmlns:svg="http://www.w3.org/2000/svg"
   xmlns="http://www.w3.org/2000/svg"
   xmlns:sodipodi="http://sodipodi.sourceforge.net/DTD/sodipodi-0.dtd"
   xmlns:inkscape="http://www.inkscape.org/namespaces/inkscape"
   width="32pt"
   height="32pt"
   viewBox="0 0 32 32"
   version="1.2"
   id="svg4472"
   sodipodi:docname="Шторы полуоткрыты.svg"
   inkscape:version="0.92.3 (2405546, 2018-03-11)">
  <metadata
     id="metadata4478">
    <rdf:RDF>
      <cc:Work
         rdf:about="">
        <dc:format>image/svg+xml</dc:format>
        <dc:type
           rdf:resource="http://purl.org/dc/dcmitype/StillImage" />
        <dc:title></dc:title>
      </cc:Work>
    </rdf:RDF>
  </metadata>
  <defs
     id="defs4476" />
  <sodipodi:namedview
     pagecolor="#ffffff"
     bordercolor="#666666"
     borderopacity="1"
     objecttolerance="10"
     gridtolerance="10"
     guidetolerance="10"
     inkscape:pageopacity="0"
     inkscape:pageshadow="2"
     inkscape:window-width="640"
     inkscape:window-height="480"
     id="namedview4474"
     showgrid="false"
     inkscape:zoom="5.53125"
     inkscape:cx="21.333333"
     inkscape:cy="21.333333"
     inkscape:window-x="0"
     inkscape:window-y="0"
     inkscape:window-maximized="0"
     inkscape:current-layer="svg4472" />
  <g
     id="surface120421">
    <path
       style="fill:none;stroke-width:2;stroke-linecap:round;stroke-linejoin:round;stroke:rgb(11.372375%,11.372375%,10.588074%);stroke-opacity:1;stroke-miterlimit:10;"
       d="M 0 0 C -0.792969 0 -1.4375 0.707031 -1.4375 1.5 L -1.4375 1.53125 C -1.4375 2.324219 -0.792969 3 0 3 L 25.1875 3 C 25.980469 3 26.625 2.355469 26.625 1.5625 L 26.625 1.5 C 26.625 0.707031 25.980469 0 25.1875 0 Z M 0 0 "
       transform="matrix(1,0,0,-1,3.4375,5)"
       id="path4457" />
    <path
       style="fill:none;stroke-width:2;stroke-linecap:round;stroke-linejoin:round;stroke:rgb(11.372375%,11.372375%,10.588074%);stroke-opacity:1;stroke-miterlimit:10;"
       d="M 0.0008375 0 L 4.0399 0 L 4.0399 19 L -7.92885 19 C -7.92885 12 -2.581194 4 0.0008375 0 Z M 0.0008375 0 "
       transform="matrix(1,0,0,-1,23.9601,24)"
       id="path4459" />
    <path
       style="fill:none;stroke-width:2;stroke-linecap:round;stroke-linejoin:round;stroke:rgb(11.372375%,11.372375%,10.588074%);stroke-opacity:1;stroke-miterlimit:10;"
       d="M 0.0008875 -0.00050625 C -1.440519 -1.668475 -2.010831 -3.949725 -2.182706 -5.953631 C -1.3038 -6.488788 -0.225675 -6.730975 0.899325 -6.730975 C 2.028231 -6.730975 3.0712 -6.426288 4.0712 -5.891131 L 4.0712 -0.1216 "
       transform="matrix(1,0,0,-1,23.9288,23.8784)"
       id="path4461" />
    <path
       style="fill:none;stroke-width:2;stroke-linecap:round;stroke-linejoin:round;stroke:rgb(11.372375%,11.372375%,10.588074%);stroke-opacity:1;stroke-miterlimit:10;"
       d="M -0.0008875 0 L -4.0712 0 L -4.0712 19 L 7.9288 19 C 7.9288 12 2.581144 4 -0.0008875 0 Z M -0.0008875 0 "
       transform="matrix(1,0,0,-1,8.0712,24)"
       id="path4463" />
    <path
       style="fill:none;stroke-width:2;stroke-linecap:round;stroke-linejoin:round;stroke:rgb(11.372375%,11.372375%,10.588074%);stroke-opacity:1;stroke-miterlimit:10;"
       d="M -0.0008625 -0.00050625 C 1.440544 -1.668475 2.018669 -3.949725 2.186637 -5.953631 C 1.311637 -6.488788 0.221794 -6.730975 -0.903206 -6.730975 C -2.032113 -6.730975 -3.0868 -6.426288 -4.0868 -5.891131 L -4.0868 -0.1216 "
       transform="matrix(1,0,0,-1,8.0868,23.8784)"
       id="path4465" />
    <path
       style="fill:none;stroke-width:2;stroke-linecap:round;stroke-linejoin:round;stroke:rgb(11.372375%,11.372375%,10.588074%);stroke-opacity:1;stroke-miterlimit:10;"
       d="M 0 0 L -12 0 "
       transform="matrix(1,0,0,-1,22,26)"
       id="path4467" />
    <path
       style="fill:none;stroke-width:2;stroke-linecap:round;stroke-linejoin:round;stroke:rgb(11.372375%,11.372375%,10.588074%);stroke-opacity:1;stroke-miterlimit:10;"
       d="M -0.0002 -0.00130625 L 8.3123 -0.013025 "
       transform="matrix(1,0,0,-1,11.6877,19.0026)"
       id="path4469" />
  </g>
</svg>
