<?xml version="1.0" encoding="UTF-8" standalone="no"?>
<svg
   xmlns:dc="http://purl.org/dc/elements/1.1/"
   xmlns:cc="http://creativecommons.org/ns#"
   xmlns:rdf="http://www.w3.org/1999/02/22-rdf-syntax-ns#"
   xmlns:svg="http://www.w3.org/2000/svg"
   xmlns="http://www.w3.org/2000/svg"
   xmlns:sodipodi="http://sodipodi.sourceforge.net/DTD/sodipodi-0.dtd"
   xmlns:inkscape="http://www.inkscape.org/namespaces/inkscape"
   width="32pt"
   height="32pt"
   viewBox="0 0 32 32"
   version="1.2"
   id="svg104"
   sodipodi:docname="Входная дверь закрыта.svg"
   inkscape:version="0.92.3 (2405546, 2018-03-11)">
  <metadata
     id="metadata110">
    <rdf:RDF>
      <cc:Work
         rdf:about="">
        <dc:format>image/svg+xml</dc:format>
        <dc:type
           rdf:resource="http://purl.org/dc/dcmitype/StillImage" />
        <dc:title></dc:title>
      </cc:Work>
    </rdf:RDF>
  </metadata>
  <defs
     id="defs108" />
  <sodipodi:namedview
     pagecolor="#ffffff"
     bordercolor="#666666"
     borderopacity="1"
     objecttolerance="10"
     gridtolerance="10"
     guidetolerance="10"
     inkscape:pageopacity="0"
     inkscape:pageshadow="2"
     inkscape:window-width="640"
     inkscape:window-height="480"
     id="namedview106"
     showgrid="false"
     inkscape:zoom="5.53125"
     inkscape:cx="21.333333"
     inkscape:cy="21.333333"
     inkscape:window-x="0"
     inkscape:window-y="0"
     inkscape:window-maximized="0"
     inkscape:current-layer="svg104" />
  <g
     id="surface48792">
    <path
       style="fill:none;stroke-width:2;stroke-linecap:round;stroke-linejoin:round;stroke:rgb(11.372375%,11.372375%,10.588074%);stroke-opacity:1;stroke-miterlimit:10;"
       d="M 0 0 L 0 -3 L -20 -3 L -20 25 L 0 25 L 0 22 "
       transform="matrix(1,0,0,-1,22,27)"
       id="path91" />
    <path
       style="fill:none;stroke-width:2;stroke-linecap:butt;stroke-linejoin:miter;stroke:rgb(11.372375%,11.372375%,10.588074%);stroke-opacity:1;stroke-miterlimit:10;"
       d="M 0.00174375 -0.00184375 C 3.38065 -1.13075 7.165806 -1.13075 10.544712 -0.00184375 C 10.94315 0.134875 11.2869 0.545031 11.2869 0.896594 L 11.2869 7.607531 C 11.2869 7.959094 10.896275 8.463 10.490025 8.463 L 0.0290875 8.463 C -0.381069 8.463 -0.7131 7.959094 -0.7131 7.607531 L -0.7131 0.896594 C -0.7131 0.545031 -0.396694 0.134875 0.00174375 -0.00184375 Z M 0.00174375 -0.00184375 "
       transform="matrix(1,0,0,-1,16.7131,25.463)"
       id="path93" />
    <path
       style="fill:none;stroke-width:2;stroke-linecap:round;stroke-linejoin:round;stroke:rgb(11.372375%,11.372375%,10.588074%);stroke-opacity:1;stroke-miterlimit:10;"
       d="M 0 0 L 0 4 C 0 6.363281 1.738281 8 3.984375 8 L 3.910156 8 C 6.160156 8 8 6.363281 8 4 L 8 0 "
       transform="matrix(1,0,0,-1,18,17)"
       id="path95" />
    <path
       style="fill:none;stroke-width:2;stroke-linecap:round;stroke-linejoin:round;stroke:rgb(11.372375%,11.372375%,10.588074%);stroke-opacity:1;stroke-miterlimit:10;"
       d="M 0 0 L -2 0 "
       transform="matrix(1,0,0,-1,23,23)"
       id="path97" />
    <path
       style="fill:none;stroke-width:2;stroke-linecap:round;stroke-linejoin:round;stroke:rgb(11.372375%,11.372375%,10.588074%);stroke-opacity:1;stroke-miterlimit:10;"
       d="M 0 0 L 0 -2 "
       transform="matrix(1,0,0,-1,22,21)"
       id="path99" />
    <path
       style="fill:none;stroke-width:2;stroke-linecap:round;stroke-linejoin:round;stroke:rgb(11.372375%,11.372375%,10.588074%);stroke-opacity:1;stroke-miterlimit:10;"
       d="M 0 0 L -4 0 L -4 1 "
       transform="matrix(1,0,0,-1,10,18)"
       id="path101" />
  </g>
</svg>
