<?xml version="1.0" encoding="UTF-8" standalone="no"?>
<svg
   xmlns:dc="http://purl.org/dc/elements/1.1/"
   xmlns:cc="http://creativecommons.org/ns#"
   xmlns:rdf="http://www.w3.org/1999/02/22-rdf-syntax-ns#"
   xmlns:svg="http://www.w3.org/2000/svg"
   xmlns="http://www.w3.org/2000/svg"
   xmlns:sodipodi="http://sodipodi.sourceforge.net/DTD/sodipodi-0.dtd"
   xmlns:inkscape="http://www.inkscape.org/namespaces/inkscape"
   width="32pt"
   height="32pt"
   viewBox="0 0 32 32"
   version="1.2"
   id="svg178"
   sodipodi:docname="Домофон.svg"
   inkscape:version="0.92.3 (2405546, 2018-03-11)">
  <metadata
     id="metadata184">
    <rdf:RDF>
      <cc:Work
         rdf:about="">
        <dc:format>image/svg+xml</dc:format>
        <dc:type
           rdf:resource="http://purl.org/dc/dcmitype/StillImage" />
        <dc:title></dc:title>
      </cc:Work>
    </rdf:RDF>
  </metadata>
  <defs
     id="defs182" />
  <sodipodi:namedview
     pagecolor="#ffffff"
     bordercolor="#666666"
     borderopacity="1"
     objecttolerance="10"
     gridtolerance="10"
     guidetolerance="10"
     inkscape:pageopacity="0"
     inkscape:pageshadow="2"
     inkscape:window-width="640"
     inkscape:window-height="474"
     id="namedview180"
     showgrid="false"
     inkscape:zoom="5.53125"
     inkscape:cx="21.333333"
     inkscape:cy="21.333333"
     inkscape:window-x="22"
     inkscape:window-y="17"
     inkscape:window-maximized="0"
     inkscape:current-layer="svg178" />
  <g
     id="surface66200">
    <path
       style="fill:none;stroke-width:2;stroke-linecap:butt;stroke-linejoin:miter;stroke:rgb(11.372375%,11.372375%,10.588074%);stroke-opacity:1;stroke-miterlimit:10;"
       d="M 0 0 L 20 0 L 20 -24 L 0 -24 "
       transform="matrix(1,0,0,-1,10,3)"
       id="path167" />
    <path
       style="fill:none;stroke-width:2;stroke-linecap:butt;stroke-linejoin:miter;stroke:rgb(11.372375%,11.372375%,10.588074%);stroke-opacity:1;stroke-miterlimit:10;"
       d="M 0 0 L 17 0 L 17 -18 L 0 -18 "
       transform="matrix(1,0,0,-1,10,6)"
       id="path169" />
    <path
       style="fill:none;stroke-width:2;stroke-linecap:butt;stroke-linejoin:miter;stroke:rgb(11.372375%,11.372375%,10.588074%);stroke-opacity:1;stroke-miterlimit:10;"
       d="M 0 0 C -2.210938 0 -4 1.789063 -4 4 L -4 27.1875 C -4 27.636719 -3.636719 28 -3.1875 28 L 3.1875 28 C 3.636719 28 4 27.636719 4 27.1875 L 4 4 C 4 1.789063 2.210938 0 0 0 Z M 0 0 "
       transform="matrix(1,0,0,-1,6,30)"
       id="path171" />
    <path
       style="fill:none;stroke-width:2;stroke-linecap:butt;stroke-linejoin:miter;stroke:rgb(11.372375%,11.372375%,10.588074%);stroke-opacity:1;stroke-miterlimit:10;"
       d="M 0 0.0007375 C 0 -1.507075 -1.257813 -2.725825 -2.8125 -2.725825 C -4.367188 -2.725825 -5.625 -1.507075 -5.625 0.0007375 C -5.625 1.504644 -4.367188 2.7273 -2.8125 2.7273 C -1.257813 2.7273 0 1.504644 0 0.0007375 Z M 0 0.0007375 "
       transform="matrix(1,0,0,-1,21.3125,11.7273)"
       id="path173" />
    <path
       style="fill:none;stroke-width:2;stroke-linecap:butt;stroke-linejoin:miter;stroke:rgb(11.372375%,11.372375%,10.588074%);stroke-opacity:1;stroke-miterlimit:10;"
       d="M 0 0 L -9 0 L -9 3.265625 C -9 4.476563 -8.019531 5.453125 -6.8125 5.453125 L -2.1875 5.453125 C -0.980469 5.453125 0 4.476563 0 3.265625 Z M 0 0 "
       transform="matrix(1,0,0,-1,23,21)"
       id="path175" />
  </g>
</svg>
