<?xml version="1.0" encoding="UTF-8" standalone="no"?>
<svg
   xmlns:dc="http://purl.org/dc/elements/1.1/"
   xmlns:cc="http://creativecommons.org/ns#"
   xmlns:rdf="http://www.w3.org/1999/02/22-rdf-syntax-ns#"
   xmlns:svg="http://www.w3.org/2000/svg"
   xmlns="http://www.w3.org/2000/svg"
   xmlns:sodipodi="http://sodipodi.sourceforge.net/DTD/sodipodi-0.dtd"
   xmlns:inkscape="http://www.inkscape.org/namespaces/inkscape"
   width="32pt"
   height="32pt"
   viewBox="0 0 32 32"
   version="1.2"
   id="svg4169"
   sodipodi:docname="Лампочка включенна.svg"
   inkscape:version="0.92.3 (2405546, 2018-03-11)">
  <metadata
     id="metadata4175">
    <rdf:RDF>
      <cc:Work
         rdf:about="">
        <dc:format>image/svg+xml</dc:format>
        <dc:type
           rdf:resource="http://purl.org/dc/dcmitype/StillImage" />
        <dc:title></dc:title>
      </cc:Work>
    </rdf:RDF>
  </metadata>
  <defs
     id="defs4173" />
  <sodipodi:namedview
     pagecolor="#ffffff"
     bordercolor="#666666"
     borderopacity="1"
     objecttolerance="10"
     gridtolerance="10"
     guidetolerance="10"
     inkscape:pageopacity="0"
     inkscape:pageshadow="2"
     inkscape:window-width="640"
     inkscape:window-height="480"
     id="namedview4171"
     showgrid="false"
     inkscape:zoom="5.53125"
     inkscape:cx="21.333333"
     inkscape:cy="21.333333"
     inkscape:window-x="0"
     inkscape:window-y="0"
     inkscape:window-maximized="0"
     inkscape:current-layer="svg4169" />
  <g
     id="surface98448">
    <path
       style="fill:none;stroke-width:2;stroke-linecap:round;stroke-linejoin:round;stroke:rgb(11.372375%,11.372375%,10.588074%);stroke-opacity:1;stroke-miterlimit:10;"
       d="M 0.00126875 0 C 0.0833 1.285156 0.887988 2.601563 1.634081 3.929688 C 2.309863 5.136719 3.345019 6.785156 3.329394 8.550781 C 3.294238 12.214844 0.548144 15.613281 -3.580762 15.613281 C -8.13545 15.613281 -10.862012 12.355469 -10.897169 8.53125 C -10.912794 6.765625 -9.912794 5.1875 -9.237012 3.984375 C -8.490919 2.65625 -7.748731 2 -7.748731 0 Z M 0.00126875 0 "
       transform="matrix(1,0,0,-1,19.7917,23)"
       id="path4144" />
    <path
       style="fill:none;stroke-width:2;stroke-linecap:round;stroke-linejoin:round;stroke:rgb(11.372375%,11.372375%,10.588074%);stroke-opacity:1;stroke-miterlimit:10;"
       d="M -0.0009125 0 L -3.434506 0 C -4.301694 0 -5.047787 0.585938 -5.219662 1.484375 L -5.71185 4 L 2.280338 4 L 1.784244 1.484375 C 1.612369 0.585938 0.866275 0 -0.0009125 0 Z M -0.0009125 0 "
       transform="matrix(1,0,0,-1,17.7431,30)"
       id="path4146" />
    <path
       style="fill:none;stroke-width:2;stroke-linecap:round;stroke-linejoin:round;stroke:rgb(11.372375%,11.372375%,10.588074%);stroke-opacity:1;stroke-miterlimit:10;"
       d="M 0.00104375 -0.00114375 L -1.381769 -3.930831 L 1.340888 -3.930831 L -0.0263 -7.708175 "
       transform="matrix(1,0,0,-1,16.0263,11.3387)"
       id="path4148" />
    <path
       style="fill:none;stroke-width:2;stroke-linecap:round;stroke-linejoin:round;stroke:rgb(11.372375%,11.372375%,10.588074%);stroke-opacity:1;stroke-miterlimit:10;"
       d="M 0 -0.00126875 L 0 2.615919 "
       transform="matrix(1,0,0,-1,16,4.5417)"
       id="path4150" />
    <path
       style="fill:none;stroke-width:2;stroke-linecap:round;stroke-linejoin:round;stroke:rgb(11.372375%,11.372375%,10.588074%);stroke-opacity:1;stroke-miterlimit:10;"
       d="M -0.0019 -0.00170625 L -2.615181 -0.0173313 "
       transform="matrix(1,0,0,-1,5.1894,15.2522)"
       id="path4152" />
    <path
       style="fill:none;stroke-width:2;stroke-linecap:round;stroke-linejoin:round;stroke:rgb(11.372375%,11.372375%,10.588074%);stroke-opacity:1;stroke-miterlimit:10;"
       d="M -0.00163125 0.00069375 L -1.829756 -1.8704 "
       transform="matrix(1,0,0,-1,8.3571,22.8796)"
       id="path4154" />
    <path
       style="fill:none;stroke-width:2;stroke-linecap:round;stroke-linejoin:round;stroke:rgb(11.372375%,11.372375%,10.588074%);stroke-opacity:1;stroke-miterlimit:10;"
       d="M 0.00075 0.00118125 L 1.871844 -1.83085 "
       transform="matrix(1,0,0,-1,23.5305,22.8254)"
       id="path4156" />
    <path
       style="fill:none;stroke-width:2;stroke-linecap:round;stroke-linejoin:round;stroke:rgb(11.372375%,11.372375%,10.588074%);stroke-opacity:1;stroke-miterlimit:10;"
       d="M 0.00063125 0.00035 L 2.617819 0.015975 "
       transform="matrix(1,0,0,-1,26.6439,15.2816)"
       id="path4158" />
    <path
       style="fill:none;stroke-width:2;stroke-linecap:round;stroke-linejoin:round;stroke:rgb(11.372375%,11.372375%,10.588074%);stroke-opacity:1;stroke-miterlimit:10;"
       d="M -0.00164375 -0.00115625 L 1.873356 1.823062 "
       transform="matrix(1,0,0,-1,23.6618,7.8465)"
       id="path4160" />
    <path
       style="fill:none;stroke-width:2;stroke-linecap:round;stroke-linejoin:round;stroke:rgb(11.372375%,11.372375%,10.588074%);stroke-opacity:1;stroke-miterlimit:10;"
       d="M -0.00099375 -0.00115625 L -1.875994 1.823062 "
       transform="matrix(1,0,0,-1,8.3799,7.8465)"
       id="path4162" />
    <path
       style="fill:none;stroke-width:2;stroke-linecap:round;stroke-linejoin:round;stroke:rgb(11.372375%,11.372375%,10.588074%);stroke-opacity:1;stroke-miterlimit:10;"
       d="M -0.0019125 -0.00103125 L 3.22465 -0.00103125 "
       transform="matrix(1,0,0,-1,26.1191,15.2685)"
       id="path4164" />
    <path
       style="fill:none;stroke-width:2;stroke-linecap:round;stroke-linejoin:round;stroke:rgb(11.372375%,11.372375%,10.588074%);stroke-opacity:1;stroke-miterlimit:10;"
       d="M -0.00025 -0.00103125 L 3.238031 -0.00103125 "
       transform="matrix(1,0,0,-1,2.6565,15.2685)"
       id="path4166" />
  </g>
</svg>
