<?xml version="1.0" encoding="UTF-8" standalone="no"?>
<svg
   xmlns:dc="http://purl.org/dc/elements/1.1/"
   xmlns:cc="http://creativecommons.org/ns#"
   xmlns:rdf="http://www.w3.org/1999/02/22-rdf-syntax-ns#"
   xmlns:svg="http://www.w3.org/2000/svg"
   xmlns="http://www.w3.org/2000/svg"
   id="svg4405"
   version="1.2"
   viewBox="0 0 32 32"
   height="32pt"
   width="32pt">
  <metadata
     id="metadata4411">
    <rdf:RDF>
      <cc:Work
         rdf:about="">
        <dc:format>image/svg+xml</dc:format>
        <dc:type
           rdf:resource="http://purl.org/dc/dcmitype/StillImage" />
        <dc:title></dc:title>
      </cc:Work>
    </rdf:RDF>
  </metadata>
  <defs
     id="defs4409" />
  <g
     transform="matrix(0.10106269,0,0,0.10106269,0.17769748,0.09534042)"
     id="g44">
    <path
       d="M 285.333,0 H 29.667 c -3.866,0 -7,3.134 -7,7 v 301 c 0,3.866 3.134,7 7,7 h 255.666 c 3.866,0 7,-3.134 7,-7 V 7 c 0,-3.866 -3.134,-7 -7,-7 z m -7,14 V 66.127 H 36.667 V 14 Z M 36.667,301 V 80.127 H 278.333 V 301 Z"
       id="path24" />
    <circle
       cx="70.077003"
       cy="40.063"
       r="8.29"
       id="circle26" />
    <circle
       cx="101.903"
       cy="40.063"
       r="8.29"
       id="circle28" />
    <circle
       cx="213.09599"
       cy="40.063"
       r="8.29"
       id="circle30" />
    <circle
       cx="244.922"
       cy="40.063"
       r="8.29"
       id="circle32" />
    <path
       d="m 157.5,60.916 c 11.499,0 20.855,-9.355 20.855,-20.854 0,-11.498 -9.356,-20.852 -20.855,-20.852 -11.499,0 -20.854,9.354 -20.854,20.852 0,11.499 9.355,20.854 20.854,20.854 z m 0,-27.706 c 3.779,0 6.855,3.073 6.855,6.852 0,3.779 -3.075,6.854 -6.855,6.854 -3.78,0 -6.854,-3.075 -6.854,-6.854 0,-3.779 3.075,-6.852 6.854,-6.852 z"
       id="path34" />
    <path
       d="M 253.213,135.05 H 61.787 c -3.866,0 -7,3.134 -7,7 v 133.83 c 0,3.866 3.134,7 7,7 h 191.426 c 3.866,0 7,-3.134 7,-7 V 142.05 c 0,-3.866 -3.134,-7 -7,-7 z m -7,133.83 H 68.787 V 149.05 h 177.426 z"
       id="path36" />
    <path
       d="M 253.213,102.142 H 61.787 c -3.866,0 -7,3.134 -7,7 0,3.866 3.134,7 7,7 h 191.426 c 3.866,0 7,-3.134 7,-7 0,-3.867 -3.134,-7 -7,-7 z"
       id="path38" />
    <path
       d="m 177.718,229.927 c -2.639,2.547 -6.625,6.396 -6.625,13.701 0,3.866 3.134,7 7,7 3.866,0 7,-3.134 7,-7 0,-1.222 0.241,-1.595 2.35,-3.631 2.639,-2.547 6.625,-6.396 6.625,-13.701 0,-7.304 -3.986,-11.153 -6.624,-13.701 -2.109,-2.036 -2.351,-2.41 -2.351,-3.633 0,-1.221 0.241,-1.593 2.349,-3.628 2.639,-2.548 6.626,-6.398 6.626,-13.702 0,-7.305 -3.987,-11.154 -6.626,-13.701 -2.107,-2.035 -2.349,-2.407 -2.349,-3.628 0,-3.866 -3.134,-7 -7,-7 -3.866,0 -7,3.134 -7,7 0,7.304 3.987,11.153 6.625,13.7 2.108,2.035 2.35,2.408 2.35,3.629 0,1.222 -0.241,1.595 -2.35,3.63 -2.639,2.548 -6.625,6.396 -6.625,13.7 0,7.306 3.987,11.155 6.625,13.703 2.108,2.036 2.35,2.409 2.35,3.631 0,1.222 -0.242,1.595 -2.35,3.631 z"
       id="path40" />
    <path
       d="m 127.559,229.926 c -2.639,2.548 -6.626,6.397 -6.626,13.702 0,3.866 3.134,7 7,7 3.866,0 7,-3.134 7,-7 0,-1.221 0.241,-1.595 2.351,-3.63 2.639,-2.548 6.626,-6.397 6.626,-13.702 0,-7.305 -3.987,-11.154 -6.626,-13.702 -2.109,-2.036 -2.351,-2.409 -2.351,-3.632 0,-1.22 0.241,-1.593 2.35,-3.628 2.639,-2.547 6.627,-6.396 6.627,-13.702 0,-7.305 -3.988,-11.154 -6.627,-13.701 -2.108,-2.035 -2.35,-2.408 -2.35,-3.628 0,-3.866 -3.134,-7 -7,-7 -3.866,0 -7,3.134 -7,7 0,7.304 3.988,11.153 6.627,13.7 2.108,2.035 2.35,2.408 2.35,3.629 0,1.221 -0.241,1.595 -2.351,3.63 -2.639,2.547 -6.626,6.396 -6.626,13.7 0,7.306 3.987,11.156 6.627,13.704 2.108,2.035 2.35,2.409 2.35,3.63 0,1.221 -0.242,1.595 -2.351,3.63 z"
       id="path42" />
  </g>
</svg>
