<?xml version="1.0" encoding="UTF-8" standalone="no"?>
<svg
   xmlns:dc="http://purl.org/dc/elements/1.1/"
   xmlns:cc="http://creativecommons.org/ns#"
   xmlns:rdf="http://www.w3.org/1999/02/22-rdf-syntax-ns#"
   xmlns:svg="http://www.w3.org/2000/svg"
   xmlns="http://www.w3.org/2000/svg"
   xmlns:sodipodi="http://sodipodi.sourceforge.net/DTD/sodipodi-0.dtd"
   xmlns:inkscape="http://www.inkscape.org/namespaces/inkscape"
   width="32pt"
   height="32pt"
   viewBox="0 0 32 32"
   version="1.2"
   id="svg146"
   sodipodi:docname="Датчик проникновения.svg"
   inkscape:version="0.92.3 (2405546, 2018-03-11)">
  <metadata
     id="metadata152">
    <rdf:RDF>
      <cc:Work
         rdf:about="">
        <dc:format>image/svg+xml</dc:format>
        <dc:type
           rdf:resource="http://purl.org/dc/dcmitype/StillImage" />
        <dc:title></dc:title>
      </cc:Work>
    </rdf:RDF>
  </metadata>
  <defs
     id="defs150" />
  <sodipodi:namedview
     pagecolor="#ffffff"
     bordercolor="#666666"
     borderopacity="1"
     objecttolerance="10"
     gridtolerance="10"
     guidetolerance="10"
     inkscape:pageopacity="0"
     inkscape:pageshadow="2"
     inkscape:window-width="640"
     inkscape:window-height="480"
     id="namedview148"
     showgrid="false"
     inkscape:zoom="5.53125"
     inkscape:cx="21.333333"
     inkscape:cy="21.333333"
     inkscape:window-x="0"
     inkscape:window-y="0"
     inkscape:window-maximized="0"
     inkscape:current-layer="svg146" />
  <g
     id="surface57332">
    <path
       style=" stroke:none;fill-rule:nonzero;fill:rgb(0%,0%,0%);fill-opacity:1;"
       d="M 28.242188 1.683594 C 25.597656 1.683594 22.089844 3.8125 20.238281 5.902344 C 17.058594 9.484375 14.222656 12.742188 12.929688 14.253906 C 11.726563 15.664063 10.117188 17.996094 10.054688 21.953125 C 10.015625 24.703125 8.375 27.460938 6.617188 27.738281 C 5.695313 27.886719 4.375 27.429688 3.285156 24.511719 C 3.132813 25.402344 2.847656 25.910156 2.835938 25.933594 L 2.773438 26.046875 L 2.679688 25.957031 C 2.667969 25.949219 1.785156 25.113281 1.054688 24.308594 C 2.226563 28.109375 4.3125 30.058594 6.796875 29.664063 C 9.527344 29.234375 12.332031 25.78125 12.15625 21.328125 C 12.050781 18.625 12.992188 17.492188 14.554688 15.617188 L 14.589844 15.574219 C 17.210938 12.429688 19.691406 9.574219 21.96875 7.097656 C 25.84375 2.882813 27.558594 2.617188 28.582031 2.457031 L 28.730469 2.433594 C 29.578125 2.292969 30.707031 2.105469 31.007813 1.980469 C 30.761719 1.894531 29.953125 1.800781 28.59375 1.695313 C 28.480469 1.6875 28.359375 1.683594 28.242188 1.683594 "
       id="path133" />
    <path
       style="fill:none;stroke-width:2;stroke-linecap:round;stroke-linejoin:round;stroke:rgb(0%,0%,0%);stroke-opacity:1;stroke-miterlimit:10;"
       d="M 30.027344 1.875 L 19.289063 1.875 L 19.289063 19.089844 L 30.027344 19.089844 Z M 30.027344 1.875 "
       transform="matrix(1,0,0,-1,0,32)"
       id="path135" />
    <path
       style="fill:none;stroke-width:2;stroke-linecap:round;stroke-linejoin:round;stroke:rgb(0%,0%,0%);stroke-opacity:1;stroke-miterlimit:10;"
       d="M 0 0.00139375 L 0 -1.721263 "
       transform="matrix(1,0,0,-1,23.125,21.0678)"
       id="path137" />
    <path
       style="fill:none;stroke-width:2;stroke-linecap:round;stroke-linejoin:round;stroke:rgb(0%,0%,0%);stroke-opacity:1;stroke-miterlimit:10;"
       d="M 12 20 L 2 20 L 2 30 L 12 30 Z M 12 20 "
       transform="matrix(1,0,0,-1,0,32)"
       id="path139" />
    <path
       style="fill:none;stroke-width:2;stroke-linecap:round;stroke-linejoin:round;stroke:rgb(0%,0%,0%);stroke-opacity:1;stroke-miterlimit:10;"
       d="M 0 0 L 0 -4 "
       transform="matrix(1,0,0,-1,7,8)"
       id="path141" />
    <path
       style="fill:none;stroke-width:2;stroke-linecap:round;stroke-linejoin:round;stroke:rgb(0%,0%,0%);stroke-opacity:1;stroke-miterlimit:10;"
       d="M 0.00005 0 L 9.43755 0 "
       transform="matrix(1,0,0,-1,2.2812,7)"
       id="path143" />
  </g>
</svg>
