<?xml version="1.0" encoding="UTF-8" standalone="no"?>
<svg
   xmlns:dc="http://purl.org/dc/elements/1.1/"
   xmlns:cc="http://creativecommons.org/ns#"
   xmlns:rdf="http://www.w3.org/1999/02/22-rdf-syntax-ns#"
   xmlns:svg="http://www.w3.org/2000/svg"
   xmlns="http://www.w3.org/2000/svg"
   xmlns:sodipodi="http://sodipodi.sourceforge.net/DTD/sodipodi-0.dtd"
   xmlns:inkscape="http://www.inkscape.org/namespaces/inkscape"
   width="32pt"
   height="32pt"
   viewBox="0 0 32 32"
   version="1.2"
   id="svg4378"
   sodipodi:docname="Теплый пол включен.svg"
   inkscape:version="0.92.3 (2405546, 2018-03-11)">
  <metadata
     id="metadata4384">
    <rdf:RDF>
      <cc:Work
         rdf:about="">
        <dc:format>image/svg+xml</dc:format>
        <dc:type
           rdf:resource="http://purl.org/dc/dcmitype/StillImage" />
        <dc:title></dc:title>
      </cc:Work>
    </rdf:RDF>
  </metadata>
  <defs
     id="defs4382" />
  <sodipodi:namedview
     pagecolor="#ffffff"
     bordercolor="#666666"
     borderopacity="1"
     objecttolerance="10"
     gridtolerance="10"
     guidetolerance="10"
     inkscape:pageopacity="0"
     inkscape:pageshadow="2"
     inkscape:window-width="640"
     inkscape:window-height="480"
     id="namedview4380"
     showgrid="false"
     inkscape:zoom="5.53125"
     inkscape:cx="21.333333"
     inkscape:cy="21.333333"
     inkscape:window-x="0"
     inkscape:window-y="0"
     inkscape:window-maximized="0"
     inkscape:current-layer="svg4378" />
  <g
     id="surface118500">
    <path
       style="fill:none;stroke-width:2;stroke-linecap:round;stroke-linejoin:round;stroke:rgb(11.372375%,11.372375%,10.588074%);stroke-opacity:1;stroke-miterlimit:10;"
       d="M 0.00014375 -0.00126875 C -0.00766875 0.01045 0.894675 0.834669 0.906394 1.522169 C 0.914206 2.092481 -0.0897 2.174513 -0.0897 2.783888 C -0.0897 3.4792 0.914206 4.0417 0.914206 4.0417 "
       transform="matrix(1,0,0,-1,16.0272,6.0417)"
       id="path4353" />
    <path
       style="fill:none;stroke-width:2;stroke-linecap:round;stroke-linejoin:round;stroke:rgb(11.372375%,11.372375%,10.588074%);stroke-opacity:1;stroke-miterlimit:10;"
       d="M -0.0008375 0 L 19.421038 0 C 20.686663 0 21.7101 -1.285156 21.7101 -2.761719 L 21.7101 -18.277344 C 21.7101 -19.753906 20.686663 -21 19.421038 -21 L -0.0008375 -21 C -1.266463 -21 -2.2899 -19.753906 -2.2899 -18.277344 L -2.2899 -2.761719 C -2.2899 -1.285156 -1.266463 0 -0.0008375 0 Z M -0.0008375 0 "
       transform="matrix(1,0,0,-1,6.2899,9)"
       id="path4355" />
    <path
       style="fill:none;stroke-width:2;stroke-linecap:round;stroke-linejoin:round;stroke:rgb(11.372375%,11.372375%,10.588074%);stroke-opacity:1;stroke-miterlimit:10;"
       d="M 0 0 L 24 0 "
       transform="matrix(1,0,0,-1,4,21)"
       id="path4357" />
    <path
       style="fill:none;stroke-width:2;stroke-linecap:round;stroke-linejoin:round;stroke:rgb(11.372375%,11.372375%,10.588074%);stroke-opacity:1;stroke-miterlimit:10;"
       d="M 0 0 L 24 0 "
       transform="matrix(1,0,0,-1,4,15)"
       id="path4359" />
    <path
       style="fill:none;stroke-width:2;stroke-linecap:round;stroke-linejoin:round;stroke:rgb(11.372375%,11.372375%,10.588074%);stroke-opacity:1;stroke-miterlimit:10;"
       d="M 0 0 L 0 -11 "
       transform="matrix(1,0,0,-1,22,10)"
       id="path4361" />
    <path
       style="fill:none;stroke-width:2;stroke-linecap:round;stroke-linejoin:round;stroke:rgb(11.372375%,11.372375%,10.588074%);stroke-opacity:1;stroke-miterlimit:10;"
       d="M 0 0 L 0 -12 "
       transform="matrix(1,0,0,-1,10,9)"
       id="path4363" />
    <path
       style="fill:none;stroke-width:2;stroke-linecap:round;stroke-linejoin:round;stroke:rgb(11.372375%,11.372375%,10.588074%);stroke-opacity:1;stroke-miterlimit:10;"
       d="M 0 0 L 0 -11 "
       transform="matrix(1,0,0,-1,16,10)"
       id="path4365" />
    <path
       style="fill:none;stroke-width:2;stroke-linecap:round;stroke-linejoin:round;stroke:rgb(11.372375%,11.372375%,10.588074%);stroke-opacity:1;stroke-miterlimit:10;"
       d="M -0.000025 -0.00126875 C -0.0078375 0.01045 0.906225 0.6042 0.917944 1.2917 C 0.925756 1.865919 -0.0898687 2.174513 -0.0898687 2.783888 C -0.0898687 3.4792 0.917944 4.0417 0.917944 4.0417 "
       transform="matrix(1,0,0,-1,9.4219,6.0417)"
       id="path4367" />
    <path
       style="fill:none;stroke-width:2;stroke-linecap:round;stroke-linejoin:round;stroke:rgb(11.372375%,11.372375%,10.588074%);stroke-opacity:1;stroke-miterlimit:10;"
       d="M 0.00014375 -0.00126875 C -0.00766875 0.01045 0.894675 0.834669 0.906394 1.522169 C 0.914206 2.092481 -0.0897 2.174513 -0.0897 2.783888 C -0.0897 3.4792 0.914206 4.0417 0.914206 4.0417 "
       transform="matrix(1,0,0,-1,22.0897,6.0417)"
       id="path4369" />
    <path
       style="fill:none;stroke-width:2;stroke-linecap:round;stroke-linejoin:round;stroke:rgb(11.372375%,11.372375%,10.588074%);stroke-opacity:1;stroke-miterlimit:10;"
       d="M 0.00126875 0.00011875 C -1.139356 0.00011875 -2.065138 0.9259 -2.065138 2.066525 L -2.065138 5.492306 C -2.065138 5.777462 -1.834669 6.007931 -1.549513 6.007931 L 1.548144 6.007931 C 1.8333 6.007931 2.063769 5.777462 2.063769 5.492306 L 2.063769 2.066525 C 2.063769 0.9259 1.141894 0.00011875 0.00126875 0.00011875 Z M 0.00126875 0.00011875 "
       transform="matrix(1,0,0,-1,9.9792,27.0509)"
       id="path4371" />
    <path
       style="fill:none;stroke-width:2;stroke-linecap:round;stroke-linejoin:round;stroke:rgb(11.372375%,11.372375%,10.588074%);stroke-opacity:1;stroke-miterlimit:10;"
       d="M 0.0014375 0.00011875 C -1.139187 0.00011875 -2.064969 0.9259 -2.064969 2.066525 L -2.064969 5.492306 C -2.064969 5.777462 -1.8345 6.007931 -1.549344 6.007931 L 1.548313 6.007931 C 1.833469 6.007931 2.063938 5.777462 2.063938 5.492306 L 2.063938 2.066525 C 2.063938 0.9259 1.138156 0.00011875 0.0014375 0.00011875 Z M 0.0014375 0.00011875 "
       transform="matrix(1,0,0,-1,18.022,27.0509)"
       id="path4373" />
    <path
       style="fill:none;stroke-width:2;stroke-linecap:round;stroke-linejoin:round;stroke:rgb(11.372375%,11.372375%,10.588074%);stroke-opacity:1;stroke-miterlimit:10;"
       d="M 0 0 L 0 6 "
       transform="matrix(1,0,0,-1,24,27)"
       id="path4375" />
  </g>
</svg>
